<svg xmlns="http://www.w3.org/2000/svg" viewBox="0 0 2500 2500" width="2500" height="2500"><path fill="#FFF" d="M0 0h2500v2500H0z"/><g transform="translate(1099.0 670.0) rotate(0.0 549.0 330.5) scale(0.9997113765879978 0.9997262474269526)"><svg width="1098.317" height="661.181" viewBox="0 0 1098.317 661.181"><path d="M326.71 471.682 1.091 283.2 1 257.14l393.705 23.777 40.751 55.81z" fill="#fff"/><path d="M326.709 472.682a.991.991 0 0 1-.5-.135L.59 284.066a.998.998 0 0 1-.499-.862L0 257.144c0-.276.112-.541.313-.73a1.01 1.01 0 0 1 .747-.271l393.704 23.777c.298.018.572.168.748.408l40.751 55.809a1 1 0 0 1-.029 1.217L327.487 472.31a1 1 0 0 1-.779.373zM2.089 282.622l324.379 187.765 107.727-133.691-40.021-54.81-392.17-23.683.085 24.42z"/><path d="M435.456 336.727 652.419 633.86l-.063 26.321L326.71 471.682v-53.549z" fill="#fff"/><path d="M652.357 661.181a.997.997 0 0 1-.501-.135L326.209 472.547a1 1 0 0 1-.499-.865v-53.549a1 1 0 0 1 .401-.801l108.747-81.407a1.002 1.002 0 0 1 1.407.211L653.228 633.27a1 1 0 0 1 .192.592l-.063 26.321a1 1 0 0 1-1 .998zM327.71 471.106l323.651 187.343.058-24.264-216.173-296.052-107.536 80.5v52.472z"/><path d="m1097.196 402.052-444.84 258.129.063-26.321 444.898-257.931z"/><path d="M652.357 661.181a1.003 1.003 0 0 1-1-1.002l.063-26.321c0-.356.19-.684.499-.863l444.897-257.931a.998.998 0 0 1 1.501.87l-.121 26.123a.998.998 0 0 1-.498.86L652.859 661.046a1 1 0 0 1-.502.135zm1.061-26.744-.057 24.005 442.838-256.968.11-23.805zm443.778-232.385h.01z"/><path d="M1097.317 375.929 652.42 633.86s-59.821-43.739-79.839-57.106c-102.118-68.187-124.206-96.391-186.903-135.018-36.721-22.624-58.967-23.603-58.967-23.603l443.643-256.744s23.34-9.309 43.96 7.796c54.832 45.483 283.003 206.744 283.003 206.744z" fill="#fff"/><path d="M652.419 634.86a.998.998 0 0 1-.59-.193c-.598-.438-60.032-43.88-79.804-57.082-52.527-35.073-83.32-59.128-110.488-80.351-24.664-19.267-45.965-35.906-76.384-54.647-36.019-22.191-58.267-23.445-58.487-23.455a1 1 0 0 1-.456-1.865l443.644-256.744c.042-.024.085-.045.13-.063.239-.095 24.133-9.329 44.969 7.955 54.175 44.939 280.661 205.085 282.942 206.697a1.002 1.002 0 0 1-.076 1.682L652.922 634.725c-.156.09-.329.135-.501.135zM329.853 417.47c7.329 1.068 27.222 5.47 56.348 23.415 30.514 18.799 51.855 35.47 76.566 54.774 27.141 21.201 57.903 45.232 110.368 80.264 18.809 12.559 73.38 52.386 79.347 56.745l442.985-256.822c-18.471-13.07-229.68-162.663-281.792-205.891-19.386-16.082-41.549-8.162-42.889-7.66L329.853 417.471z"/><path d="M770.353 161.389 326.71 418.133s-32.279-54.704-86.167-82.156c-34.281-17.464-100.32-26.436-148.786-39.315C67.84 290.306 1 257.14 1 257.14L446.372 1s54.697 24.945 73.473 31.907c67.403 24.992 125.364 24.714 162.45 44.683 59.073 31.808 88.059 83.799 88.059 83.799z" fill="#fff"/><path d="M326.711 419.134a1 1 0 0 1-.862-.492c-.321-.545-32.762-54.775-85.76-81.773-22.715-11.572-59.939-19.501-95.939-27.17-17.915-3.816-36.439-7.762-52.649-12.07-23.74-6.309-90.275-39.261-90.944-39.593a.998.998 0 0 1-.054-1.762L445.873.133a1 1 0 0 1 .914-.043c.546.249 54.878 25.009 73.406 31.879 32.866 12.187 63.522 18.359 90.569 23.805 28.393 5.717 52.914 10.654 72.007 20.935 58.651 31.582 88.167 83.67 88.458 84.193a.999.999 0 0 1-.373 1.352L327.21 418.998a1 1 0 0 1-.5.135zM3.124 257.072c10.521 5.171 67.45 32.927 88.89 38.624 16.162 4.295 34.662 8.236 52.552 12.046 36.126 7.695 73.481 15.653 96.431 27.344 49.869 25.405 81.679 74.636 86.058 81.693l441.931-255.753c-4.073-6.859-33.153-53.473-87.164-82.556-18.831-10.14-43.217-15.05-71.454-20.735-27.119-5.46-57.856-11.65-90.87-23.89-17.673-6.553-67.683-29.269-73.072-31.721z"/></svg></g><g transform="translate(176.0 688.0) rotate(0.0 903.5 713.5) scale(1.0065046827254387 1.0057625188184016)"><svg width="1795.322" height="1418.824" viewBox="0 0 1795.322 1418.824"><path d="M1793.82 930.297 759.84 360.254 81.531 729.103v55.922c0 4.71 2.477 9.073 6.521 11.487l1033.625 616.97a30.716 30.716 0 0 0 31.132.209l625.208-394.97a32.63 32.63 0 0 0 15.803-27.956v-60.469z"/><path d="M1137.412 1418.819a31.682 31.682 0 0 1-16.247-4.477L87.54 797.371a14.448 14.448 0 0 1-7.009-12.346v-55.922a1 1 0 0 1 .522-.878l678.308-368.85a1 1 0 0 1 .961.003l1033.98 570.043a1 1 0 0 1 .517.876v60.469c0 11.726-6.241 22.766-16.287 28.813l-625.19 394.959a31.778 31.778 0 0 1-15.932 4.281zM82.531 729.698v55.327c0 4.334 2.312 8.407 6.034 10.629l1033.625 616.97a29.735 29.735 0 0 0 30.118.203l625.175-394.95c9.467-5.698 15.337-16.083 15.337-27.111v-59.878L759.836 361.394z"/><path d="m1144.328 1357.733 633.804-393.347c21.526-12.711 21.6-43.828.135-56.641L782.586 316.169a50.277 50.277 0 0 0-50.953-.343l-638.83 396.28c-13.06 7.559-13.002 26.434.104 33.913l1031.785 611.861a19.557 19.557 0 0 0 19.637-.146z" fill="#fff"/><path d="M1134.383 1361.443c-3.518 0-7.037-.897-10.188-2.695L92.397 746.879c-6.456-3.683-10.332-10.334-10.354-17.783-.023-7.449 3.813-14.124 10.259-17.855l638.804-396.264c16.117-9.329 36.029-9.195 51.993.334l995.679 591.576c10.389 6.201 16.573 17.124 16.544 29.22-.028 12.096-6.265 22.99-16.681 29.141l-633.785 393.335a20.555 20.555 0 0 1-10.472 2.86zM756.816 310.069a49.24 49.24 0 0 0-24.683 6.623L93.33 712.956c-5.846 3.384-9.308 9.409-9.288 16.134.021 6.724 3.52 12.729 9.36 16.061l1031.799 611.869c5.755 3.284 12.891 3.232 18.612-.143l633.792-393.339c9.821-5.8 15.689-16.051 15.716-27.435s-5.792-21.663-15.567-27.497L782.075 317.029a49.254 49.254 0 0 0-25.259-6.96zm387.512 1047.665h.01z"/><path d="m298.165 696.323 190.722-110.714a54.466 54.466 0 0 1 54.61-.045l805.031 465.55c24.408 14.115 24.354 49.369-.097 63.409l-190.617 109.458a54.469 54.469 0 0 1-54.322-.044L298.26 759.799c-24.43-14.082-24.484-49.319-.097-63.476z" fill="#adc4cb"/><path d="M1130.693 1232.187c-9.581 0-19.158-2.461-27.699-7.384L297.763 760.665c-11.786-6.793-18.835-18.971-18.856-32.575s6.991-25.803 18.756-32.632l190.722-110.714c17.143-9.952 38.453-9.969 55.613-.046l805.031 465.55c11.776 6.81 18.794 18.997 18.773 32.6s-7.076 25.768-18.872 32.542l-190.617 109.458c-8.52 4.892-18.072 7.338-27.62 7.339zm-614.462-652.92a53.444 53.444 0 0 0-26.842 7.207L298.667 697.188c-11.141 6.467-17.78 18.018-17.76 30.899.02 12.882 6.695 24.412 17.855 30.845l805.232 464.138c16.438 9.475 36.871 9.492 53.324.044l190.617-109.458c11.169-6.414 17.848-17.931 17.868-30.811.02-12.879-6.625-24.418-17.774-30.865L542.997 586.43a53.453 53.453 0 0 0-26.765-7.163zM298.164 696.323h.01z"/><path d="m1064.66 562.414 281.591 162.844c24.412 14.117 24.353 49.378-.106 63.414l-149.447 85.761a54.466 54.466 0 0 1-54.306-.051L861.27 712.359c-24.431-14.081-24.486-49.319-.099-63.476l148.879-86.424a54.466 54.466 0 0 1 54.61-.045z" fill="#fff"/><path d="M1169.589 882.631c-9.579 0-19.158-2.461-27.697-7.382L860.77 713.226c-11.787-6.793-18.836-18.971-18.857-32.575s6.99-25.803 18.756-32.633l148.879-86.424c17.143-9.952 38.453-9.969 55.613-.046l281.591 162.844c11.778 6.811 18.796 19 18.773 32.605s-7.081 25.77-18.881 32.542L1197.197 875.3c-8.517 4.887-18.062 7.331-27.607 7.331zm-132.195-326.514a53.441 53.441 0 0 0-26.842 7.207l-148.879 86.424c-11.141 6.467-17.78 18.019-17.76 30.9.02 12.882 6.695 24.413 17.856 30.845l281.122 162.023c16.433 9.471 36.86 9.49 53.309.05l149.447-85.761c11.173-6.411 17.855-17.929 17.877-30.811s-6.623-24.422-17.774-30.87L1064.159 563.28a53.453 53.453 0 0 0-26.765-7.163z"/><path d="m1181.468 1376.476-78.556-738.545a30.718 30.718 0 0 0-15.866-26.889L69.474 2.668a13.377 13.377 0 0 0-13.542.356L7.361 28.054l80.696 715.433 1046.641 643.55z"/><path d="M1134.697 1388.037c-.183 0-.365-.051-.524-.148L87.533 744.338a.999.999 0 0 1-.47-.74L6.367 28.166a.999.999 0 0 1 .536-1.001l48.571-25.03c4.349-2.714 9.926-2.86 14.484-.342L1087.56 610.184c10.06 5.556 16.333 16.17 16.353 27.694l78.551 738.492a1 1 0 0 1-.774 1.081l-46.77 10.561a.97.97 0 0 1-.22.025zM88.996 742.89l1045.879 643.081 45.504-10.275-78.462-737.66a.942.942 0 0 1-.006-.106 29.727 29.727 0 0 0-15.349-26.014L68.961 3.527c-3.895-2.151-8.696-2.024-12.5.346L8.432 28.627z"/><path d="M1055.438 671.123a30.718 30.718 0 0 0-15.866-26.889L20.847 27.728C11.933 22.804 1.005 29.248 1 39.432l80.533 745.597c0 4.71 2.472 9.069 6.524 11.483l1033.621 616.974c4.016 2.395 12.952 4.211 12.952 4.211z" fill="#87c159"/><path d="M1134.63 1418.697c-.066 0-.133-.007-.199-.02-.372-.076-9.149-1.878-13.265-4.332L87.544 797.37c-4.309-2.566-6.992-7.271-7.012-12.287L.006 39.539A.977.977 0 0 1 0 39.431c.002-5.14 2.647-9.767 7.075-12.378 4.427-2.611 9.757-2.686 14.255-.2l1018.76 616.525c10.055 5.553 16.328 16.167 16.348 27.69l79.187 746.523a.997.997 0 0 1-.995 1.105zM2 39.379l80.527 745.542a.973.973 0 0 1 .006.107c0 4.335 2.313 8.406 6.036 10.624l1033.622 616.975c2.916 1.739 8.686 3.194 11.298 3.795l-79.046-745.194a.924.924 0 0 1-.006-.105 29.727 29.727 0 0 0-15.349-26.014L20.329 28.583c-3.839-2.119-8.427-2.055-12.238.192-3.796 2.239-6.07 6.2-6.091 10.604zm1054.438 631.743h.01z"/><path d="M1049.357 652.792s-5.879-6.402-9.791-8.558L20.852 27.732c-4.418-2.443-9.318-2.091-13.15.117L55.936 3.023a13.343 13.343 0 0 1 13.531-.351l1017.581 608.371c4.89 2.704 11.592 11.272 11.592 11.272z" fill="#fff"/><path d="M1049.357 653.791c-.272 0-.542-.111-.737-.323-.058-.063-5.814-6.307-9.537-8.359L20.334 28.587a12.245 12.245 0 0 0-11.037-.435l-1.138.586a1.001 1.001 0 0 1-.957-1.756c.403-.232.813-.443 1.229-.634L55.478 2.134c4.355-2.716 9.928-2.86 14.474-.336l1017.609 608.387c4.981 2.754 11.588 11.158 11.867 11.514a1.001 1.001 0 0 1-.261 1.467l-49.283 30.477a.994.994 0 0 1-.525.149zM15.277 25.074c2.083.132 4.148.726 6.058 1.782l1018.748 616.521c3.301 1.819 7.854 6.459 9.443 8.133l47.623-29.45c-1.825-2.221-6.829-8.065-10.586-10.143L68.953 3.53c-3.883-2.156-8.679-2.031-12.489.342z"/><ellipse cx="514.136" cy="718.378" fill="#fff" rx="58.93" ry="113.062" transform="matrix(.82515294 -.5649094 .5649094 .82515294 -315.923 416.046)"/><path d="M558.099 818.407c-28.02.001-65.513-25.42-93.414-66.174-17.149-25.05-28.19-52.099-31.088-76.164-2.926-24.297 2.793-42.696 16.105-51.809s32.534-7.789 54.126 3.729c21.387 11.407 42.61 31.486 59.76 56.536s28.19 52.099 31.088 76.165c2.926 24.297-2.793 42.696-16.105 51.809-5.855 4.008-12.811 5.909-20.472 5.91zM470.352 620.27c-7.419 0-14.019 1.873-19.521 5.639-12.666 8.671-18.081 26.4-15.249 49.92 2.86 23.751 13.782 50.484 30.753 75.273 27.522 40.201 64.335 65.367 91.595 65.371 7.314 0 13.935-1.809 19.511-5.627 12.666-8.671 18.081-26.4 15.249-49.92-2.86-23.752-13.782-50.484-30.753-75.274-16.971-24.789-37.942-44.642-59.05-55.901-11.823-6.306-22.874-9.482-32.535-9.482z"/></svg></g><g transform="translate(1104.0 390.0) rotate(0.0 390.5 240.5) scale(0.9999462256831259 0.9984576838687849)"><svg width="781.042" height="481.743" viewBox="0 0 781.042 481.743"><path d="m208.102 270.697 52.64 210.046L780.042 1 372.383 159.185z" fill="#dbf301"/><path d="M260.742 481.743a1.005 1.005 0 0 1-.971-.757L207.132 270.94a1.002 1.002 0 0 1 .409-1.071l164.28-111.512c.063-.042.129-.078.2-.105L779.681.068a1 1 0 0 1 1.041 1.667L261.42 481.477a1.002 1.002 0 0 1-.679.265zm-51.499-210.611 52.059 207.732L775.5 3.835 372.851 160.076z"/><path d="M780.042 1 1 150.145l207.102 120.552z" fill="#dbf301"/><path d="M208.103 271.697a.993.993 0 0 1-.503-.136L.497 151.01a1 1 0 0 1 .315-1.846L779.855.018a1 1 0 0 1 .615 1.887L208.529 271.602a.999.999 0 0 1-.427.095zM3.812 150.625l204.339 118.944L772.461 3.47zm309.359 180.898-52.429 149.22 142.542-131.684z"/><path d="M260.742 481.743a1 1 0 0 1-.943-1.331l52.429-149.219a1 1 0 0 1 1.134-.65l90.114 17.535a1 1 0 0 1 .488 1.716L261.422 481.478a.997.997 0 0 1-.679.265zm53.086-149.073-50.809 144.607 138.137-127.614-87.329-16.993z"/><path d="M780.042 1 313.171 331.523 520.89 451.791z" fill="#dbf301"/><path d="M520.89 452.791a.999.999 0 0 1-.501-.135l-207.72-120.268a1.002 1.002 0 0 1-.077-1.682L779.465.184a1 1 0 0 1 1.444 1.314L521.757 452.289a1.007 1.007 0 0 1-.867.502zM315.02 331.439l205.502 118.984L776.91 4.443 315.021 331.439z"/></svg></g><g transform="translate(1491.0 909.0) rotate(0.0 294.5 168.5) scale(0.9990535282364076 0.9995402707953316)"><svg width="589.558" height="337.155" viewBox="0 0 589.558 337.155"><path d="M505.487 200.562a.997.997 0 0 1-.586-.19C455.945 164.867 294.487 47.591 272.242 29.139c-20.011-16.599-40.364-14.027-40.565-13.999a1 1 0 1 1-.274-1.981c.863-.12 21.395-2.748 42.118 14.441 22.198 18.414 183.612 135.658 232.555 171.154a1 1 0 0 1-.588 1.809zM276.136 337.155a.997.997 0 0 1-.586-.19C221.726 297.929 63.477 179.16 41.702 161.098c-20.01-16.599-40.364-14.027-40.565-14a1 1 0 0 1-.274-1.981c.863-.12 21.396-2.748 42.117 14.441 21.757 18.047 179.937 136.764 233.745 175.788a1 1 0 0 1-.588 1.809zm312.421-192.741a.993.993 0 0 1-.588-.192l-40.297-29.349a1 1 0 0 1 1.178-1.617l40.297 29.349a1 1 0 0 1-.59 1.808zm-22.072 12.796a.993.993 0 0 1-.588-.192L434.933 61.637a1 1 0 0 1 1.178-1.617l130.964 95.381a1 1 0 0 1-.59 1.808zm-81.684-7.711a.993.993 0 0 1-.588-.192l-89.649-65.291a1 1 0 0 1 1.178-1.617l89.649 65.291a1 1 0 0 1-.59 1.808zm61.706 18.415a.993.993 0 0 1-.588-.192l-130.964-95.38a1 1 0 0 1 1.178-1.617l130.964 95.38a1 1 0 0 1-.59 1.808zM349.04 283.332a.993.993 0 0 1-.588-.192l-132.167-96.257a1 1 0 0 1 1.178-1.616l132.167 96.257a1 1 0 0 1-.59 1.808zm-39.643 0a.993.993 0 0 1-.588-.192l-113.394-82.584a.999.999 0 1 1 1.177-1.616l113.394 82.584a1 1 0 0 1-.59 1.808zm19.053-41.572a.993.993 0 0 1-.588-.192l-89.65-65.292a1 1 0 0 1 1.178-1.616l89.65 65.292a1 1 0 0 1-.59 1.808zm-21.461 65.072a.993.993 0 0 1-.588-.192l-61.706-44.94a1 1 0 0 1 1.178-1.616l61.706 44.94a1 1 0 0 1-.59 1.808zm-81.366-59.259a.993.993 0 0 1-.588-.192l-49.598-36.122a1 1 0 0 1 1.178-1.616l49.598 36.122a1 1 0 0 1-.59 1.808z"/><path d="m383.433 262.336-16.883 9.788-131.877-96.266 17.724-10.223z" fill="#87c159"/><path d="M366.549 273.124a.997.997 0 0 1-.59-.192l-131.876-96.267a1 1 0 0 1 .09-1.674l17.724-10.223a.997.997 0 0 1 1.093.062l131.036 96.701a1.002 1.002 0 0 1-.092 1.67l-16.884 9.789c-.156.09-.329.135-.501.135zm-130.045-97.168 130.108 94.976 15.001-8.697-129.283-95.407z"/><path d="m328.002 164.504-17.026 9.29L177.4 76.662l17.63-10.425z" fill="#87c159"/><path d="M310.976 174.794a.995.995 0 0 1-.588-.191L176.812 77.471a1.001 1.001 0 0 1 .079-1.669l17.63-10.425a1 1 0 0 1 1.103.057L328.596 163.7a1 1 0 0 1-.116 1.683l-17.026 9.291a.998.998 0 0 1-.479.122zM179.219 76.748l131.833 95.865 15.095-8.237-131.179-96.941-15.75 9.313z"/><path d="m545.754 99.229-16.542 9.643-134.06-97.484L412.833 1z" fill="#87c159"/><path d="M529.212 109.872a.997.997 0 0 1-.588-.191L394.565 12.197a1 1 0 0 1 .082-1.671L412.327.138a1 1 0 0 1 1.101.058l132.921 98.229a.998.998 0 0 1-.091 1.668l-16.542 9.643a.998.998 0 0 1-.503.136zM396.975 11.477l132.297 96.202 14.666-8.549L412.77 2.197z"/></svg></g><g transform="translate(639.0 636.0) rotate(0.0 250.0 80.0) scale(1.0022309661306068 0.9955511308838627)"><svg width="498.887" height="160.715" viewBox="0 0 498.887 160.715"><path d="M28.6 132.373a39.626 39.626 0 0 1 10.7-4.92L473.491 1.72a19.183 19.183 0 0 1 21.411 8.204c6.865 10.846 1.348 25.243-11.006 28.724L48.602 158.298a39.662 39.662 0 0 1-13.288 1.32L5.21 157.499c-3.977-.375-5.652-5.266-2.74-8l26.13-17.125z" fill="#fff"/><path d="M38.111 160.716c-.955 0-1.91-.033-2.867-.101L5.14 158.496c-2.26-.213-4.101-1.664-4.829-3.789s-.163-4.4 1.475-5.938a.928.928 0 0 1 .136-.107l26.13-17.125a40.611 40.611 0 0 1 10.97-5.044L473.212.76c8.533-2.405 17.796 1.145 22.534 8.63 3.443 5.439 4.097 12.006 1.793 18.016-2.303 6.011-7.178 10.459-13.374 12.205L48.867 159.262a40.523 40.523 0 0 1-10.756 1.454zM3.095 150.283a3.599 3.599 0 0 0-.893 3.775 3.6 3.6 0 0 0 3.101 2.444l30.081 2.117a38.547 38.547 0 0 0 12.952-1.286L483.63 37.684c5.576-1.571 9.967-5.579 12.042-10.994s1.486-11.331-1.615-16.231c-4.269-6.743-12.612-9.94-20.295-7.777L39.578 128.413a38.61 38.61 0 0 0-10.43 4.796L3.095 150.283z"/><path d="M431.461 54.093a1 1 0 0 1-.271-1.963c5.432-1.531 9.706-5.431 11.725-10.702 2.02-5.27 1.446-11.027-1.572-15.796-4.241-6.699-12.389-9.917-19.817-7.824a.999.999 0 1 1-.542-1.925c8.271-2.332 17.339 1.238 22.049 8.678 3.36 5.308 3.998 11.716 1.75 17.582s-7.004 10.207-13.051 11.911a.98.98 0 0 1-.271.038zM42.302 160.491a1 1 0 0 1-.271-1.963c4.532-1.277 8.066-4.45 9.697-8.706 1.63-4.255 1.122-8.978-1.396-12.956-3.532-5.58-10.06-8.156-16.244-6.415a.999.999 0 1 1-.542-1.925c7.041-1.985 14.467.937 18.475 7.27 2.859 4.517 3.433 9.89 1.575 14.741-1.859 4.851-5.876 8.465-11.022 9.915a.98.98 0 0 1-.271.038z"/><path d="m19.824 158.527-14.615-1.029c-3.977-.375-5.652-5.266-2.74-8l13.09-8.579s3.958 1.611 5.581 7.921c1.637 6.365-1.316 9.687-1.316 9.687z" fill="#87c159"/><path d="M19.825 159.527c-.023 0-.047 0-.07-.002L5.14 158.496c-2.26-.213-4.101-1.664-4.829-3.789s-.163-4.4 1.475-5.938a.928.928 0 0 1 .136-.107l13.09-8.579c.275-.18.621-.213.925-.09.181.073 4.444 1.878 6.172 8.598 1.75 6.803-1.402 10.449-1.537 10.601-.19.214-.463.336-.748.336zm-16.729-9.243a3.599 3.599 0 0 0-.893 3.775 3.6 3.6 0 0 0 3.101 2.444l14.043.988c.628-.968 2.015-3.777.826-8.402-1.168-4.539-3.564-6.41-4.556-7.011z"/></svg></g><g transform="translate(670.0 865.0) rotate(0.0 347.5 99.5) scale(1.0010413710953985 1.0022967201224917)"><svg width="694.277" height="198.544" viewBox="0 0 694.277 198.544"><path d="M675.365 16.431a2.5 2.5 0 0 1-1.442-4.544C683.276 5.299 690.292.486 690.361.438a2.5 2.5 0 1 1 2.829 4.123c-.07.048-7.062 4.845-16.388 11.414-.438.308-.94.456-1.438.456zm-95.526 180.883a2.501 2.501 0 0 1-.378-4.972c13.759-2.122 26.036-7.182 36.489-15.039a2.498 2.498 0 0 1 3.5.497 2.499 2.499 0 0 1-.497 3.5c-11.118 8.357-24.149 13.734-38.731 15.983-.129.02-.257.03-.384.03zm-40.897-.852c-.133 0-.269-.011-.405-.033-12.386-2.018-25.525-5.406-40.168-10.359a2.5 2.5 0 1 1 1.602-4.736c14.379 4.864 27.257 8.188 39.369 10.161a2.501 2.501 0 0 1-.399 4.968zm-78.035-25.346c-.337 0-.681-.069-1.009-.214-11.47-5.071-23.661-10.87-37.269-17.729a2.499 2.499 0 1 1 2.25-4.464c13.533 6.821 25.649 12.584 37.041 17.621a2.5 2.5 0 0 1-1.012 4.787zm181.409-21.228a2.501 2.501 0 0 1-2.402-3.201 33.577 33.577 0 0 0 1.351-9.397c0-9.2-3.614-17.805-9.04-27.896a2.5 2.5 0 0 1 4.404-2.368c5.784 10.756 9.636 20.019 9.636 30.264 0 3.635-.521 7.267-1.55 10.796a2.5 2.5 0 0 1-2.399 1.801zm-255.028-15.519c-.4 0-.806-.096-1.183-.299-12.274-6.604-24.579-13.362-36.129-19.718a2.5 2.5 0 1 1 2.411-4.381c11.54 6.351 23.833 13.102 36.088 19.696a2.5 2.5 0 0 1-1.187 4.702zm-72.206-39.507a2.49 2.49 0 0 1-1.192-.304c-13.925-7.571-25.451-13.712-36.275-19.326a2.5 2.5 0 1 1 2.302-4.438c10.853 5.629 22.407 11.785 36.361 19.372a2.5 2.5 0 0 1-1.196 4.697zm304.64-22.053h-.011a2.5 2.5 0 0 1-2.489-2.511c.028-6.391 1.796-12.418 5.405-18.425.963-1.604 3.875-4.981 17.967-15.747a2.5 2.5 0 0 1 3.035 3.973c-13.505 10.316-16.189 13.47-16.716 14.348-3.132 5.214-4.667 10.406-4.691 15.873a2.5 2.5 0 0 1-2.5 2.489zm-377.794-15.63c-.358 0-.722-.077-1.068-.241-13.427-6.354-25.699-11.754-37.518-16.51a2.5 2.5 0 0 1 1.867-4.638c11.912 4.794 24.273 10.233 37.79 16.629a2.5 2.5 0 0 1-1.071 4.76zM45.023 27.592a2.5 2.5 0 0 1-1.137-4.727 89.164 89.164 0 0 1 11.199-4.787c9.092-3.159 18.886-5.278 29.112-6.297a2.501 2.501 0 0 1 .496 4.976c-9.836.98-19.245 3.015-27.967 6.044a84.132 84.132 0 0 0-10.57 4.519 2.494 2.494 0 0 1-1.134.273zm120.479-.669c-.236 0-.476-.034-.713-.104-14.015-4.167-27.378-7.158-39.716-8.89a2.5 2.5 0 0 1 .695-4.951c12.584 1.766 26.192 4.811 40.446 9.048a2.501 2.501 0 0 1-.712 4.897zM2.498 69.994a2.501 2.501 0 0 1-2.213-3.66 102.97 102.97 0 0 1 11.258-17.093 2.5 2.5 0 0 1 3.883 3.151 97.862 97.862 0 0 0-10.71 16.261 2.5 2.5 0 0 1-2.217 1.341z"/></svg></g><g transform="translate(1919.0 1874.0) rotate(9.640422287237756 73.0 65.0) scale(1.4147560999244173 1.4126289023873428)"><svg width="103.198" height="92.027" viewBox="0 0 103.198 92.027"><circle cx="53.352" cy="18.417" r="17.417"/><path d="M53.352 36.834c-10.155 0-18.417-8.262-18.417-18.417S43.197 0 53.352 0s18.417 8.262 18.417 18.417-8.262 18.417-18.417 18.417zm0-34.834C44.3 2 36.935 9.365 36.935 18.417s7.364 16.417 16.417 16.417 16.417-7.365 16.417-16.417S62.404 2 53.352 2z"/><circle cx="64.882" cy="30.166" fill="#DBF301" r="25.613"/><path d="M64.882 56.779c-14.674 0-26.613-11.938-26.613-26.613 0-14.674 11.938-26.613 26.613-26.613s26.613 11.938 26.613 26.613-11.938 26.613-26.613 26.613zm0-51.226c-13.572 0-24.613 11.041-24.613 24.613S51.31 54.779 64.882 54.779s24.613-11.042 24.613-24.613S78.454 5.553 64.882 5.553z"/><circle cx="70.57" cy="36.444" fill="#dedde3" r="14.866"/><path d="M70.57 52.31c-8.749 0-15.866-7.117-15.866-15.866s7.117-15.866 15.866-15.866c8.748 0 15.865 7.117 15.865 15.866S79.318 52.31 70.57 52.31zm0-29.732c-7.646 0-13.866 6.22-13.866 13.866S62.925 50.31 70.57 50.31s13.865-6.22 13.865-13.866-6.219-13.866-13.865-13.866z"/><path d="M20.643 88.359 8.496 67.32l75.479-43.578c5.81-3.354 13.239-1.364 16.593 4.446 3.354 5.81 1.364 13.239-4.446 16.593z" fill="#fff"/><path d="M20.643 89.359a.995.995 0 0 1-.866-.5L7.63 67.82a1 1 0 0 1 .366-1.366l75.479-43.578c6.28-3.625 14.336-1.465 17.96 4.812 3.624 6.278 1.465 14.335-4.812 17.959l-75.48 43.579a1.014 1.014 0 0 1-.5.133zM9.862 67.687l11.147 19.307 74.613-43.079c5.322-3.073 7.152-9.903 4.08-15.227-3.072-5.323-9.905-7.153-15.228-4.08z"/><circle cx="13.247" cy="78.781" fill="#dedde3" r="12.247"/><path d="M13.247 92.028C5.942 92.028 0 86.086 0 78.781s5.942-13.247 13.247-13.247 13.247 5.942 13.247 13.247-5.942 13.247-13.247 13.247zm0-24.494C7.045 67.534 2 72.58 2 78.781s5.045 11.247 11.247 11.247 11.247-5.046 11.247-11.247-5.045-11.247-11.247-11.247z"/></svg></g><g transform="translate(1671.0 1580.0) rotate(-29.890099522670376 73.0 65.0) scale(1.4147560999244173 1.4126289023873428)"><svg width="103.198" height="92.027" viewBox="0 0 103.198 92.027"><circle cx="53.352" cy="18.417" r="17.417"/><path d="M53.352 36.834c-10.155 0-18.417-8.262-18.417-18.417S43.197 0 53.352 0s18.417 8.262 18.417 18.417-8.262 18.417-18.417 18.417zm0-34.834C44.3 2 36.935 9.365 36.935 18.417s7.364 16.417 16.417 16.417 16.417-7.365 16.417-16.417S62.404 2 53.352 2z"/><circle cx="64.882" cy="30.166" fill="#DBF301" r="25.613"/><path d="M64.882 56.779c-14.674 0-26.613-11.938-26.613-26.613 0-14.674 11.938-26.613 26.613-26.613s26.613 11.938 26.613 26.613-11.938 26.613-26.613 26.613zm0-51.226c-13.572 0-24.613 11.041-24.613 24.613S51.31 54.779 64.882 54.779s24.613-11.042 24.613-24.613S78.454 5.553 64.882 5.553z"/><circle cx="70.57" cy="36.444" fill="#dedde3" r="14.866"/><path d="M70.57 52.31c-8.749 0-15.866-7.117-15.866-15.866s7.117-15.866 15.866-15.866c8.748 0 15.865 7.117 15.865 15.866S79.318 52.31 70.57 52.31zm0-29.732c-7.646 0-13.866 6.22-13.866 13.866S62.925 50.31 70.57 50.31s13.865-6.22 13.865-13.866-6.219-13.866-13.865-13.866z"/><path d="M20.643 88.359 8.496 67.32l75.479-43.578c5.81-3.354 13.239-1.364 16.593 4.446 3.354 5.81 1.364 13.239-4.446 16.593z" fill="#fff"/><path d="M20.643 89.359a.995.995 0 0 1-.866-.5L7.63 67.82a1 1 0 0 1 .366-1.366l75.479-43.578c6.28-3.625 14.336-1.465 17.96 4.812 3.624 6.278 1.465 14.335-4.812 17.959l-75.48 43.579a1.014 1.014 0 0 1-.5.133zM9.862 67.687l11.147 19.307 74.613-43.079c5.322-3.073 7.152-9.903 4.08-15.227-3.072-5.323-9.905-7.153-15.228-4.08z"/><circle cx="13.247" cy="78.781" fill="#dedde3" r="12.247"/><path d="M13.247 92.028C5.942 92.028 0 86.086 0 78.781s5.942-13.247 13.247-13.247 13.247 5.942 13.247 13.247-5.942 13.247-13.247 13.247zm0-24.494C7.045 67.534 2 72.58 2 78.781s5.045 11.247 11.247 11.247 11.247-5.046 11.247-11.247-5.045-11.247-11.247-11.247z"/></svg></g><g transform="translate(2323.0 1340.0) rotate(0.0 -142.0 103.0) scale(-1.2486974414892915 1.2551561938302371)"><svg width="227.437" height="164.123" viewBox="0 0 227.437 164.123"><ellipse cx="113.719" cy="82.061" fill="#ADC4CB" rx="112.719" ry="81.061"/><path d="M113.719 164.122C51.014 164.122 0 127.31 0 82.061S51.014 0 113.719 0s113.719 36.812 113.719 82.061-51.014 82.061-113.719 82.061zm0-162.122C52.117 2 2 37.915 2 82.061s50.117 80.061 111.719 80.061 111.719-35.915 111.719-80.061S175.321 2 113.719 2z"/><path d="M218.378 110.611c-5.553-24.61-27.556-49.564-60.365-68.463-39.644-22.835-84.911-31.431-115.328-21.897l-.598-1.908c30.923-9.692 76.819-1.027 116.923 22.073 33.293 19.177 55.643 44.602 61.318 69.756zM70.105 145.17l-30.236-15.106a3.052 3.052 0 0 1-1.362-4.081 3.052 3.052 0 0 1 4.081-1.362l30.236 15.106a3.052 3.052 0 0 1 1.362 4.081 3.051 3.051 0 0 1-4.081 1.362z"/><path d="M71.454 146.49a4.005 4.005 0 0 1-1.795-.426l-30.236-15.105a4.05 4.05 0 0 1-1.811-5.422 4.045 4.045 0 0 1 5.422-1.811l30.237 15.105a4.048 4.048 0 0 1 1.81 5.422 4.011 4.011 0 0 1-2.338 2.025 4.049 4.049 0 0 1-1.289.212zm-30.222-21.189c-.75 0-1.474.414-1.831 1.13a2.046 2.046 0 0 0 .915 2.739l30.236 15.105a2.006 2.006 0 0 0 1.557.106c.52-.173.939-.536 1.182-1.021a2.046 2.046 0 0 0-.915-2.739L42.14 125.516a2.018 2.018 0 0 0-.908-.215z"/></svg></g></svg>